<svg width="1250" height="377" viewBox="0 0 1250 377" fill="none" xmlns="http://www.w3.org/2000/svg">
<path fill-rule="evenodd" clip-rule="evenodd" d="M133.264 20.6933C127.548 20.6933 122.914 16.0609 122.914 10.3467C122.914 4.6324 127.548 0 133.264 0C138.977 0 143.615 4.6324 143.615 10.3467C143.615 16.0609 138.977 20.6933 133.264 20.6933Z" fill="#3D3D3D"/>
<path fill-rule="evenodd" clip-rule="evenodd" d="M133.264 103.467C127.548 103.467 122.914 98.8342 122.914 93.12C122.914 87.4057 127.548 82.7733 133.264 82.7733C138.977 82.7733 143.615 87.4057 143.615 93.12C143.615 98.8342 138.977 103.467 133.264 103.467Z" fill="#3D3D3D"/>
<path fill-rule="evenodd" clip-rule="evenodd" d="M133.264 186.24C127.548 186.24 122.914 181.608 122.914 175.893C122.914 170.179 127.548 165.547 133.264 165.547C138.977 165.547 143.615 170.179 143.615 175.893C143.615 181.608 138.977 186.24 133.264 186.24Z" fill="#3D3D3D"/>
<path fill-rule="evenodd" clip-rule="evenodd" d="M133.264 269.013C127.548 269.013 122.914 264.383 122.914 258.668C122.914 252.953 127.548 248.32 133.264 248.32C138.977 248.32 143.615 252.953 143.615 258.668C143.615 264.383 138.977 269.013 133.264 269.013Z" fill="#3D3D3D"/>
<path fill-rule="evenodd" clip-rule="evenodd" d="M133.264 351.787C127.548 351.787 122.914 347.154 122.914 341.442C122.914 335.726 127.548 331.093 133.264 331.093C138.977 331.093 143.615 335.726 143.615 341.442C143.615 347.154 138.977 351.787 133.264 351.787Z" fill="#3D3D3D"/>
<path fill-rule="evenodd" clip-rule="evenodd" d="M10.3506 20.6933C4.63418 20.6933 0 16.0609 0 10.3467C0 4.6324 4.63418 0 10.3506 0C16.0639 0 20.7012 4.6324 20.7012 10.3467C20.7012 16.0609 16.0639 20.6933 10.3506 20.6933Z" fill="#3D3D3D"/>
<path fill-rule="evenodd" clip-rule="evenodd" d="M10.3506 103.467C4.63418 103.467 0 98.8342 0 93.12C0 87.4057 4.63418 82.7733 10.3506 82.7733C16.0639 82.7733 20.7012 87.4057 20.7012 93.12C20.7012 98.8342 16.0639 103.467 10.3506 103.467Z" fill="#3D3D3D"/>
<path fill-rule="evenodd" clip-rule="evenodd" d="M10.3506 186.24C4.63418 186.24 0 181.608 0 175.893C0 170.179 4.63418 165.547 10.3506 165.547C16.0639 165.547 20.7012 170.179 20.7012 175.893C20.7012 181.608 16.0639 186.24 10.3506 186.24Z" fill="#3D3D3D"/>
<path fill-rule="evenodd" clip-rule="evenodd" d="M10.3506 269.013C4.63418 269.013 0 264.383 0 258.668C0 252.953 4.63418 248.32 10.3506 248.32C16.0639 248.32 20.7012 252.953 20.7012 258.668C20.7012 264.383 16.0639 269.013 10.3506 269.013Z" fill="#3D3D3D"/>
<path fill-rule="evenodd" clip-rule="evenodd" d="M10.3506 351.787C4.63418 351.787 0 347.154 0 341.442C0 335.726 4.63418 331.093 10.3506 331.093C16.0639 331.093 20.7012 335.726 20.7012 341.442C20.7012 347.154 16.0639 351.787 10.3506 351.787Z" fill="#3D3D3D"/>
<path fill-rule="evenodd" clip-rule="evenodd" d="M256.178 20.6933C250.465 20.6933 245.827 16.0609 245.827 10.3467C245.827 4.6324 250.465 0 256.178 0C261.894 0 266.528 4.6324 266.528 10.3467C266.528 16.0609 261.894 20.6933 256.178 20.6933Z" fill="#3D3D3D"/>
<path fill-rule="evenodd" clip-rule="evenodd" d="M256.178 103.467C250.465 103.467 245.827 98.8342 245.827 93.12C245.827 87.4057 250.465 82.7733 256.178 82.7733C261.894 82.7733 266.528 87.4057 266.528 93.12C266.528 98.8342 261.894 103.467 256.178 103.467Z" fill="#3D3D3D"/>
<path fill-rule="evenodd" clip-rule="evenodd" d="M256.178 186.24C250.465 186.24 245.827 181.608 245.827 175.893C245.827 170.179 250.465 165.547 256.178 165.547C261.894 165.547 266.528 170.179 266.528 175.893C266.528 181.608 261.894 186.24 256.178 186.24Z" fill="#3D3D3D"/>
<path fill-rule="evenodd" clip-rule="evenodd" d="M256.178 269.013C250.465 269.013 245.827 264.383 245.827 258.668C245.827 252.953 250.465 248.32 256.178 248.32C261.894 248.32 266.528 252.953 266.528 258.668C266.528 264.383 261.894 269.013 256.178 269.013Z" fill="#3D3D3D"/>
<path fill-rule="evenodd" clip-rule="evenodd" d="M256.178 351.787C250.465 351.787 245.827 347.154 245.827 341.442C245.827 335.726 250.465 331.093 256.178 331.093C261.894 331.093 266.528 335.726 266.528 341.442C266.528 347.154 261.894 351.787 256.178 351.787Z" fill="#3D3D3D"/>
<path fill-rule="evenodd" clip-rule="evenodd" d="M624.919 20.6933C619.202 20.6933 614.568 16.0609 614.568 10.3467C614.568 4.6324 619.202 0 624.919 0C630.632 0 635.269 4.6324 635.269 10.3467C635.269 16.0609 630.632 20.6933 624.919 20.6933Z" fill="#3D3D3D"/>
<path fill-rule="evenodd" clip-rule="evenodd" d="M624.919 103.467C619.202 103.467 614.568 98.8342 614.568 93.12C614.568 87.4057 619.202 82.7733 624.919 82.7733C630.632 82.7733 635.269 87.4057 635.269 93.12C635.269 98.8342 630.632 103.467 624.919 103.467Z" fill="#3D3D3D"/>
<path fill-rule="evenodd" clip-rule="evenodd" d="M624.919 186.24C619.202 186.24 614.568 181.608 614.568 175.893C614.568 170.179 619.202 165.547 624.919 165.547C630.632 165.547 635.269 170.179 635.269 175.893C635.269 181.608 630.632 186.24 624.919 186.24Z" fill="#3D3D3D"/>
<path fill-rule="evenodd" clip-rule="evenodd" d="M624.919 269.013C619.202 269.013 614.568 264.383 614.568 258.668C614.568 252.953 619.202 248.32 624.919 248.32C630.632 248.32 635.269 252.953 635.269 258.668C635.269 264.383 630.632 269.013 624.919 269.013Z" fill="#3D3D3D"/>
<path fill-rule="evenodd" clip-rule="evenodd" d="M624.919 351.787C619.202 351.787 614.568 347.154 614.568 341.442C614.568 335.726 619.202 331.093 624.919 331.093C630.632 331.093 635.269 335.726 635.269 341.442C635.269 347.154 630.632 351.787 624.919 351.787Z" fill="#3D3D3D"/>
<path fill-rule="evenodd" clip-rule="evenodd" d="M502.005 20.6933C496.289 20.6933 491.655 16.0609 491.655 10.3467C491.655 4.6324 496.289 0 502.005 0C507.718 0 512.356 4.6324 512.356 10.3467C512.356 16.0609 507.718 20.6933 502.005 20.6933Z" fill="#3D3D3D"/>
<path fill-rule="evenodd" clip-rule="evenodd" d="M502.005 186.24C496.289 186.24 491.655 181.608 491.655 175.893C491.655 170.179 496.289 165.547 502.005 165.547C507.718 165.547 512.356 170.179 512.356 175.893C512.356 181.608 507.718 186.24 502.005 186.24Z" fill="#3D3D3D"/>
<path fill-rule="evenodd" clip-rule="evenodd" d="M502.005 269.013C496.289 269.013 491.655 264.383 491.655 258.668C491.655 252.953 496.289 248.32 502.005 248.32C507.718 248.32 512.356 252.953 512.356 258.668C512.356 264.383 507.718 269.013 502.005 269.013Z" fill="#3D3D3D"/>
<path fill-rule="evenodd" clip-rule="evenodd" d="M502.005 351.787C496.289 351.787 491.655 347.154 491.655 341.442C491.655 335.726 496.289 331.093 502.005 331.093C507.718 331.093 512.356 335.726 512.356 341.442C512.356 347.154 507.718 351.787 502.005 351.787Z" fill="#3D3D3D"/>
<path fill-rule="evenodd" clip-rule="evenodd" d="M379.091 20.6933C373.378 20.6933 368.741 16.0609 368.741 10.3467C368.741 4.6324 373.378 0 379.091 0C384.808 0 389.442 4.6324 389.442 10.3467C389.442 16.0609 384.808 20.6933 379.091 20.6933Z" fill="#3D3D3D"/>
<path fill-rule="evenodd" clip-rule="evenodd" d="M379.091 103.467C373.378 103.467 368.741 98.8342 368.741 93.12C368.741 87.4057 373.378 82.7733 379.091 82.7733C384.808 82.7733 389.442 87.4057 389.442 93.12C389.442 98.8342 384.808 103.467 379.091 103.467Z" fill="#3D3D3D"/>
<path fill-rule="evenodd" clip-rule="evenodd" d="M379.091 186.24C373.378 186.24 368.741 181.608 368.741 175.893C368.741 170.179 373.378 165.547 379.091 165.547C384.808 165.547 389.442 170.179 389.442 175.893C389.442 181.608 384.808 186.24 379.091 186.24Z" fill="#3D3D3D"/>
<path fill-rule="evenodd" clip-rule="evenodd" d="M379.091 269.013C373.378 269.013 368.741 264.383 368.741 258.668C368.741 252.953 373.378 248.32 379.091 248.32C384.808 248.32 389.442 252.953 389.442 258.668C389.442 264.383 384.808 269.013 379.091 269.013Z" fill="#3D3D3D"/>
<path fill-rule="evenodd" clip-rule="evenodd" d="M379.091 351.787C373.378 351.787 368.741 347.154 368.741 341.442C368.741 335.726 373.378 331.093 379.091 331.093C384.808 331.093 389.442 335.726 389.442 341.442C389.442 347.154 384.808 351.787 379.091 351.787Z" fill="#3D3D3D"/>
<path fill-rule="evenodd" clip-rule="evenodd" d="M747.832 20.6933C742.119 20.6933 737.482 16.0609 737.482 10.3467C737.482 4.6324 742.119 0 747.832 0C753.549 0 758.183 4.6324 758.183 10.3467C758.183 16.0609 753.549 20.6933 747.832 20.6933Z" fill="#3D3D3D"/>
<path fill-rule="evenodd" clip-rule="evenodd" d="M747.832 103.467C742.119 103.467 737.482 98.8342 737.482 93.12C737.482 87.4057 742.119 82.7733 747.832 82.7733C753.549 82.7733 758.183 87.4057 758.183 93.12C758.183 98.8342 753.549 103.467 747.832 103.467Z" fill="#3D3D3D"/>
<path fill-rule="evenodd" clip-rule="evenodd" d="M747.832 186.24C742.119 186.24 737.482 181.608 737.482 175.893C737.482 170.179 742.119 165.547 747.832 165.547C753.549 165.547 758.183 170.179 758.183 175.893C758.183 181.608 753.549 186.24 747.832 186.24Z" fill="#3D3D3D"/>
<path fill-rule="evenodd" clip-rule="evenodd" d="M747.832 269.013C742.119 269.013 737.482 264.383 737.482 258.668C737.482 252.953 742.119 248.32 747.832 248.32C753.549 248.32 758.183 252.953 758.183 258.668C758.183 264.383 753.549 269.013 747.832 269.013Z" fill="#3D3D3D"/>
<path fill-rule="evenodd" clip-rule="evenodd" d="M747.832 351.787C742.119 351.787 737.482 347.154 737.482 341.442C737.482 335.726 742.119 331.093 747.832 331.093C753.549 331.093 758.183 335.726 758.183 341.442C758.183 347.154 753.549 351.787 747.832 351.787Z" fill="#3D3D3D"/>
<path fill-rule="evenodd" clip-rule="evenodd" d="M1116.57 20.6933C1110.86 20.6933 1106.22 16.0609 1106.22 10.3467C1106.22 4.6324 1110.86 0 1116.57 0C1122.29 0 1126.92 4.6324 1126.92 10.3467C1126.92 16.0609 1122.29 20.6933 1116.57 20.6933Z" fill="#3D3D3D"/>
<path fill-rule="evenodd" clip-rule="evenodd" d="M1116.57 103.467C1110.86 103.467 1106.22 98.8342 1106.22 93.12C1106.22 87.4057 1110.86 82.7733 1116.57 82.7733C1122.29 82.7733 1126.92 87.4057 1126.92 93.12C1126.92 98.8342 1122.29 103.467 1116.57 103.467Z" fill="#3D3D3D"/>
<path fill-rule="evenodd" clip-rule="evenodd" d="M1116.57 186.24C1110.86 186.24 1106.22 181.608 1106.22 175.893C1106.22 170.179 1110.86 165.547 1116.57 165.547C1122.29 165.547 1126.92 170.179 1126.92 175.893C1126.92 181.608 1122.29 186.24 1116.57 186.24Z" fill="#3D3D3D"/>
<path fill-rule="evenodd" clip-rule="evenodd" d="M1116.57 269.013C1110.86 269.013 1106.22 264.383 1106.22 258.668C1106.22 252.953 1110.86 248.32 1116.57 248.32C1122.29 248.32 1126.92 252.953 1126.92 258.668C1126.92 264.383 1122.29 269.013 1116.57 269.013Z" fill="#3D3D3D"/>
<path fill-rule="evenodd" clip-rule="evenodd" d="M1116.57 351.787C1110.86 351.787 1106.22 347.154 1106.22 341.442C1106.22 335.726 1110.86 331.093 1116.57 331.093C1122.29 331.093 1126.92 335.726 1126.92 341.442C1126.92 347.154 1122.29 351.787 1116.57 351.787Z" fill="#3D3D3D"/>
<path fill-rule="evenodd" clip-rule="evenodd" d="M993.66 20.6933C987.943 20.6933 983.309 16.0609 983.309 10.3467C983.309 4.6324 987.943 0 993.66 0C999.373 0 1004.01 4.6324 1004.01 10.3467C1004.01 16.0609 999.373 20.6933 993.66 20.6933Z" fill="#3D3D3D"/>
<path fill-rule="evenodd" clip-rule="evenodd" d="M993.66 103.467C987.943 103.467 983.309 98.8342 983.309 93.12C983.309 87.4057 987.943 82.7733 993.66 82.7733C999.373 82.7733 1004.01 87.4057 1004.01 93.12C1004.01 98.8342 999.373 103.467 993.66 103.467Z" fill="#3D3D3D"/>
<path fill-rule="evenodd" clip-rule="evenodd" d="M993.66 186.24C987.943 186.24 983.309 181.608 983.309 175.893C983.309 170.179 987.943 165.547 993.66 165.547C999.373 165.547 1004.01 170.179 1004.01 175.893C1004.01 181.608 999.373 186.24 993.66 186.24Z" fill="#3D3D3D"/>
<path fill-rule="evenodd" clip-rule="evenodd" d="M993.66 269.013C987.943 269.013 983.309 264.383 983.309 258.668C983.309 252.953 987.943 248.32 993.66 248.32C999.373 248.32 1004.01 252.953 1004.01 258.668C1004.01 264.383 999.373 269.013 993.66 269.013Z" fill="#3D3D3D"/>
<path fill-rule="evenodd" clip-rule="evenodd" d="M993.66 351.787C987.943 351.787 983.309 347.154 983.309 341.442C983.309 335.726 987.943 331.093 993.66 331.093C999.373 331.093 1004.01 335.726 1004.01 341.442C1004.01 347.154 999.373 351.787 993.66 351.787Z" fill="#3D3D3D"/>
<path fill-rule="evenodd" clip-rule="evenodd" d="M870.746 20.6933C865.033 20.6933 860.395 16.0609 860.395 10.3467C860.395 4.6324 865.033 0 870.746 0C876.462 0 881.097 4.6324 881.097 10.3467C881.097 16.0609 876.462 20.6933 870.746 20.6933Z" fill="#3D3D3D"/>
<path fill-rule="evenodd" clip-rule="evenodd" d="M870.746 103.467C865.033 103.467 860.395 98.8342 860.395 93.12C860.395 87.4057 865.033 82.7733 870.746 82.7733C876.462 82.7733 881.097 87.4057 881.097 93.12C881.097 98.8342 876.462 103.467 870.746 103.467Z" fill="#3D3D3D"/>
<path fill-rule="evenodd" clip-rule="evenodd" d="M870.746 186.24C865.033 186.24 860.395 181.608 860.395 175.893C860.395 170.179 865.033 165.547 870.746 165.547C876.462 165.547 881.097 170.179 881.097 175.893C881.097 181.608 876.462 186.24 870.746 186.24Z" fill="#3D3D3D"/>
<path fill-rule="evenodd" clip-rule="evenodd" d="M870.746 269.013C865.033 269.013 860.395 264.383 860.395 258.668C860.395 252.953 865.033 248.32 870.746 248.32C876.462 248.32 881.097 252.953 881.097 258.668C881.097 264.383 876.462 269.013 870.746 269.013Z" fill="#3D3D3D"/>
<path fill-rule="evenodd" clip-rule="evenodd" d="M870.746 351.787C865.033 351.787 860.395 347.154 860.395 341.442C860.395 335.726 865.033 331.093 870.746 331.093C876.462 331.093 881.097 335.726 881.097 341.442C881.097 347.154 876.462 351.787 870.746 351.787Z" fill="#3D3D3D"/>
<path fill-rule="evenodd" clip-rule="evenodd" d="M1239.49 20.6933C1233.77 20.6933 1229.14 16.0609 1229.14 10.3467C1229.14 4.6324 1233.77 0 1239.49 0C1245.2 0 1249.84 4.6324 1249.84 10.3467C1249.84 16.0609 1245.2 20.6933 1239.49 20.6933Z" fill="#3D3D3D"/>
<path fill-rule="evenodd" clip-rule="evenodd" d="M1239.49 103.467C1233.77 103.467 1229.14 98.8342 1229.14 93.12C1229.14 87.4057 1233.77 82.7733 1239.49 82.7733C1245.2 82.7733 1249.84 87.4057 1249.84 93.12C1249.84 98.8342 1245.2 103.467 1239.49 103.467Z" fill="#3D3D3D"/>
<path fill-rule="evenodd" clip-rule="evenodd" d="M1239.49 186.24C1233.77 186.24 1229.14 181.608 1229.14 175.893C1229.14 170.179 1233.77 165.547 1239.49 165.547C1245.2 165.547 1249.84 170.179 1249.84 175.893C1249.84 181.608 1245.2 186.24 1239.49 186.24Z" fill="#3D3D3D"/>
<path fill-rule="evenodd" clip-rule="evenodd" d="M1239.49 269.013C1233.77 269.013 1229.14 264.383 1229.14 258.668C1229.14 252.953 1233.77 248.32 1239.49 248.32C1245.2 248.32 1249.84 252.953 1249.84 258.668C1249.84 264.383 1245.2 269.013 1239.49 269.013Z" fill="#3D3D3D"/>
<path fill-rule="evenodd" clip-rule="evenodd" d="M1239.49 351.787C1233.77 351.787 1229.14 347.154 1229.14 341.442C1229.14 335.726 1233.77 331.093 1239.49 331.093C1245.2 331.093 1249.84 335.726 1249.84 341.442C1249.84 347.154 1245.2 351.787 1239.49 351.787Z" fill="#3D3D3D"/>
<path fill-rule="evenodd" clip-rule="evenodd" d="M717 260.897C717 277.96 730.838 291.794 747.907 291.794C764.978 291.794 778.817 277.96 778.817 260.897C778.817 243.833 764.978 230 747.907 230C730.838 230 717 243.833 717 260.897Z" fill="#3D3D3D"/>
<path d="M717 260.897C717 277.96 730.838 291.794 747.907 291.794C764.978 291.794 778.817 277.96 778.817 260.897C778.817 243.833 764.978 230 747.907 230C730.838 230 717 243.833 717 260.897" stroke="#3D3D3D" stroke-width="4"/>
<path fill-rule="evenodd" clip-rule="evenodd" d="M717 256.897C717 273.96 730.838 287.794 747.907 287.794C764.978 287.794 778.817 273.96 778.817 256.897C778.817 239.833 764.978 226 747.907 226C730.838 226 717 239.833 717 256.897Z" fill="white" stroke="#3D3D3D" stroke-width="4"/>
<path fill-rule="evenodd" clip-rule="evenodd" d="M717 248.897C717 265.96 730.838 279.794 747.907 279.794C764.978 279.794 778.817 265.96 778.817 248.897C778.817 231.833 764.978 218 747.907 218C730.838 218 717 231.833 717 248.897Z" fill="white" stroke="#3D3D3D" stroke-width="4"/>
<path fill-rule="evenodd" clip-rule="evenodd" d="M717 239.897C717 256.96 730.838 270.794 747.907 270.794C764.978 270.794 778.817 256.96 778.817 239.897C778.817 222.833 764.978 209 747.907 209C730.838 209 717 222.833 717 239.897Z" fill="white" stroke="#3D3D3D" stroke-width="4"/>
<path fill-rule="evenodd" clip-rule="evenodd" d="M971.04 177.548C971.04 194.611 984.878 208.445 1001.95 208.445C1019.02 208.445 1032.86 194.611 1032.86 177.548C1032.86 160.483 1019.02 146.65 1001.95 146.65C984.878 146.65 971.04 160.483 971.04 177.548Z" fill="#FF7171"/>
<mask id="mask0" mask-type="alpha" maskUnits="userSpaceOnUse" x="971" y="146" width="62" height="63">
<path fill-rule="evenodd" clip-rule="evenodd" d="M971.04 177.548C971.04 194.611 984.878 208.445 1001.95 208.445C1019.02 208.445 1032.86 194.611 1032.86 177.548C1032.86 160.483 1019.02 146.65 1001.95 146.65C984.878 146.65 971.04 160.483 971.04 177.548Z" fill="white"/>
</mask>
<g mask="url(#mask0)">
<path fill-rule="evenodd" clip-rule="evenodd" d="M1002.88 118.653L940.653 180.879L943.482 183.707L1005.71 121.482L1002.88 118.653ZM1009.24 125.017L947.017 187.243L949.846 190.071L1012.07 127.846L1009.24 125.017ZM952.674 192.899L1014.9 130.674L1017.73 133.503L955.503 195.728L952.674 192.899ZM1020.56 136.331L958.331 198.556L961.159 201.385L1023.38 139.159L1020.56 136.331ZM963.988 204.213L1026.21 141.988L1029.04 144.816L966.816 207.042L963.988 204.213ZM1031.87 147.645L969.645 209.87L972.473 212.698L1034.7 150.473L1031.87 147.645ZM975.302 215.527L1037.53 153.301L1040.36 156.13L978.13 218.355L975.302 215.527ZM1043.89 159.665L981.666 221.891L984.494 224.719L1046.72 162.494L1043.89 159.665ZM987.322 227.548L1049.55 165.322L1052.38 168.151L990.151 230.376L987.322 227.548ZM1055.2 170.979L992.979 233.205L995.808 236.033L1058.03 173.808L1055.2 170.979ZM998.636 238.861L1060.86 176.636L1063.69 179.464L1001.46 241.69L998.636 238.861ZM1066.52 182.293L1004.29 244.518L1007.12 247.347L1069.35 185.121L1066.52 182.293Z" fill="#FFF0AE"/>
</g>
<path fill-rule="evenodd" clip-rule="evenodd" d="M971 169.897C971 186.96 984.838 200.794 1001.91 200.794C1018.98 200.794 1032.82 186.96 1032.82 169.897C1032.82 152.833 1018.98 139 1001.91 139C984.838 139 971 152.833 971 169.897Z" fill="white"/>
<path d="M971 169.897C971 186.96 984.838 200.794 1001.91 200.794C1018.98 200.794 1032.82 186.96 1032.82 169.897C1032.82 152.833 1018.98 139 1001.91 139C984.838 139 971 152.833 971 169.897" stroke="#3D3D3D" stroke-width="4"/>
<path fill-rule="evenodd" clip-rule="evenodd" d="M971 161.897C971 178.96 984.838 192.794 1001.91 192.794C1018.98 192.794 1032.82 178.96 1032.82 161.897C1032.82 144.833 1018.98 131 1001.91 131C984.838 131 971 144.833 971 161.897Z" fill="#FF7171"/>
<mask id="mask1" mask-type="alpha" maskUnits="userSpaceOnUse" x="971" y="131" width="62" height="62">
<path fill-rule="evenodd" clip-rule="evenodd" d="M971 161.897C971 178.96 984.838 192.794 1001.91 192.794C1018.98 192.794 1032.82 178.96 1032.82 161.897C1032.82 144.833 1018.98 131 1001.91 131C984.838 131 971 144.833 971 161.897Z" fill="white"/>
</mask>
<g mask="url(#mask1)">
<path fill-rule="evenodd" clip-rule="evenodd" d="M1002.84 103.003L940.613 165.228L943.442 168.057L1005.67 105.831L1002.84 103.003ZM1009.2 109.367L946.977 171.592L949.806 174.421L1012.03 112.195L1009.2 109.367ZM952.634 177.249L1014.86 115.024L1017.69 117.852L955.463 180.078L952.634 177.249ZM1020.52 120.681L958.291 182.906L961.119 185.734L1023.34 123.509L1020.52 120.681ZM963.948 188.563L1026.17 126.337L1029 129.166L966.776 191.391L963.948 188.563ZM1031.83 131.994L969.605 194.22L972.433 197.048L1034.66 134.823L1031.83 131.994ZM975.262 199.877L1037.49 137.651L1040.32 140.48L978.09 202.705L975.262 199.877ZM1043.85 144.015L981.625 206.241L984.454 209.069L1046.68 146.844L1043.85 144.015ZM987.282 211.897L1049.51 149.672L1052.34 152.5L990.111 214.726L987.282 211.897ZM1055.16 155.329L992.939 217.554L995.768 220.383L1057.99 158.157L1055.16 155.329ZM998.596 223.211L1060.82 160.986L1063.65 163.814L1001.42 226.04L998.596 223.211ZM1066.48 166.643L1004.25 228.868L1007.08 231.696L1069.31 169.471L1066.48 166.643Z" fill="#FFF0AE"/>
</g>
<path fill-rule="evenodd" clip-rule="evenodd" d="M471.04 345.548C471.04 362.611 484.878 376.445 501.947 376.445C519.018 376.445 532.857 362.611 532.857 345.548C532.857 328.483 519.018 314.65 501.947 314.65C484.878 314.65 471.04 328.483 471.04 345.548Z" fill="#FF7171"/>
<mask id="mask2" mask-type="alpha" maskUnits="userSpaceOnUse" x="471" y="314" width="62" height="63">
<path fill-rule="evenodd" clip-rule="evenodd" d="M471.04 345.548C471.04 362.611 484.878 376.445 501.947 376.445C519.018 376.445 532.857 362.611 532.857 345.548C532.857 328.483 519.018 314.65 501.947 314.65C484.878 314.65 471.04 328.483 471.04 345.548Z" fill="white"/>
</mask>
<g mask="url(#mask2)">
<path fill-rule="evenodd" clip-rule="evenodd" d="M502.879 286.653L440.653 348.879L443.482 351.707L505.707 289.482L502.879 286.653ZM509.243 293.017L447.017 355.243L449.846 358.071L512.071 295.846L509.243 293.017ZM452.674 360.9L514.9 298.674L517.728 301.503L455.503 363.728L452.674 360.9ZM520.556 304.331L458.331 366.556L461.159 369.385L523.385 307.159L520.556 304.331ZM463.988 372.213L526.213 309.988L529.042 312.816L466.816 375.042L463.988 372.213ZM531.87 315.645L469.645 377.87L472.473 380.699L534.699 318.473L531.87 315.645ZM475.302 383.527L537.527 321.302L540.355 324.13L478.13 386.355L475.302 383.527ZM543.891 327.666L481.666 389.891L484.494 392.719L546.719 330.494L543.891 327.666ZM487.322 395.548L549.548 333.322L552.376 336.151L490.151 398.376L487.322 395.548ZM555.205 338.979L492.979 401.205L495.808 404.033L558.033 341.808L555.205 338.979ZM498.636 406.861L560.861 344.636L563.69 347.465L501.465 409.69L498.636 406.861ZM566.518 350.293L504.293 412.518L507.121 415.347L569.347 353.121L566.518 350.293Z" fill="#FFF0AE"/>
</g>
<path fill-rule="evenodd" clip-rule="evenodd" d="M471 337.897C471 354.96 484.838 368.794 501.907 368.794C518.978 368.794 532.817 354.96 532.817 337.897C532.817 320.833 518.978 307 501.907 307C484.838 307 471 320.833 471 337.897Z" fill="white"/>
<path d="M471 337.897C471 354.96 484.838 368.794 501.907 368.794C518.978 368.794 532.817 354.96 532.817 337.897C532.817 320.833 518.978 307 501.907 307C484.838 307 471 320.833 471 337.897" stroke="#3D3D3D" stroke-width="4"/>
<path fill-rule="evenodd" clip-rule="evenodd" d="M471 329.897C471 346.96 484.838 360.794 501.907 360.794C518.978 360.794 532.817 346.96 532.817 329.897C532.817 312.833 518.978 299 501.907 299C484.838 299 471 312.833 471 329.897Z" fill="#FF7171"/>
<mask id="mask3" mask-type="alpha" maskUnits="userSpaceOnUse" x="471" y="299" width="62" height="62">
<path fill-rule="evenodd" clip-rule="evenodd" d="M471 329.897C471 346.96 484.838 360.794 501.907 360.794C518.978 360.794 532.817 346.96 532.817 329.897C532.817 312.833 518.978 299 501.907 299C484.838 299 471 312.833 471 329.897Z" fill="white"/>
</mask>
<g mask="url(#mask3)">
<path fill-rule="evenodd" clip-rule="evenodd" d="M502.839 271.003L440.613 333.228L443.442 336.057L505.667 273.831L502.839 271.003ZM509.203 277.367L446.977 339.592L449.806 342.421L512.031 280.195L509.203 277.367ZM452.634 345.249L514.859 283.024L517.688 285.852L455.463 348.078L452.634 345.249ZM520.516 288.681L458.291 350.906L461.119 353.734L523.345 291.509L520.516 288.681ZM463.948 356.563L526.173 294.337L529.002 297.166L466.776 359.391L463.948 356.563ZM531.83 299.994L469.605 362.22L472.433 365.048L534.658 302.823L531.83 299.994ZM475.262 367.877L537.487 305.651L540.315 308.48L478.09 370.705L475.262 367.877ZM543.851 312.015L481.625 374.241L484.454 377.069L546.679 314.844L543.851 312.015ZM487.282 379.897L549.508 317.672L552.336 320.5L490.111 382.726L487.282 379.897ZM555.165 323.329L492.939 385.554L495.768 388.383L557.993 326.157L555.165 323.329ZM498.596 391.211L560.821 328.986L563.65 331.814L501.424 394.04L498.596 391.211ZM566.478 334.643L504.253 396.868L507.081 399.696L569.307 337.471L566.478 334.643Z" fill="#FFF0AE"/>
</g>
<path fill-rule="evenodd" clip-rule="evenodd" d="M471 322.897C471 339.96 484.838 353.794 501.907 353.794C518.978 353.794 532.817 339.96 532.817 322.897C532.817 305.833 518.978 292 501.907 292C484.838 292 471 305.833 471 322.897Z" fill="white"/>
<path d="M471 322.897C471 339.96 484.838 353.794 501.907 353.794C518.978 353.794 532.817 339.96 532.817 322.897C532.817 305.833 518.978 292 501.907 292C484.838 292 471 305.833 471 322.897" stroke="#3D3D3D" stroke-width="4"/>
<path fill-rule="evenodd" clip-rule="evenodd" d="M971 154.897C971 171.96 984.838 185.794 1001.91 185.794C1018.98 185.794 1032.82 171.96 1032.82 154.897C1032.82 137.833 1018.98 124 1001.91 124C984.838 124 971 137.833 971 154.897Z" fill="white"/>
<path d="M971 154.897C971 171.96 984.838 185.794 1001.91 185.794C1018.98 185.794 1032.82 171.96 1032.82 154.897C1032.82 137.833 1018.98 124 1001.91 124C984.838 124 971 137.833 971 154.897" stroke="#3D3D3D" stroke-width="4"/>
<path fill-rule="evenodd" clip-rule="evenodd" d="M234.837 266.897C234.837 283.96 248.675 297.794 265.744 297.794C282.815 297.794 296.654 283.96 296.654 266.897C296.654 249.833 282.815 236 265.744 236C248.675 236 234.837 249.833 234.837 266.897Z" fill="#FFF0AE"/>
<path fill-rule="evenodd" clip-rule="evenodd" d="M234.837 260.897C234.837 277.96 248.675 291.794 265.744 291.794C282.815 291.794 296.654 277.96 296.654 260.897C296.654 243.833 282.815 230 265.744 230C248.675 230 234.837 243.833 234.837 260.897Z" fill="white"/>
<path d="M234.837 260.897C234.837 277.96 248.675 291.794 265.744 291.794C282.815 291.794 296.654 277.96 296.654 260.897C296.654 243.833 282.815 230 265.744 230C248.675 230 234.837 243.833 234.837 260.897" stroke="#3D3D3D" stroke-width="4"/>
<path fill-rule="evenodd" clip-rule="evenodd" d="M481.838 96.8972C481.838 113.96 495.675 127.794 512.745 127.794C529.815 127.794 543.654 113.96 543.654 96.8972C543.654 79.8326 529.815 66 512.745 66C495.675 66 481.838 79.8326 481.838 96.8972Z" fill="#3D3D3D"/>
<path d="M481.838 96.8972C481.838 113.96 495.675 127.794 512.745 127.794C529.815 127.794 543.654 113.96 543.654 96.8972C543.654 79.8326 529.815 66 512.745 66C495.675 66 481.838 79.8326 481.838 96.8972" stroke="#3D3D3D" stroke-width="4"/>
<path fill-rule="evenodd" clip-rule="evenodd" d="M481.838 92.8972C481.838 109.96 495.675 123.794 512.745 123.794C529.815 123.794 543.654 109.96 543.654 92.8972C543.654 75.8326 529.815 62 512.745 62C495.675 62 481.838 75.8326 481.838 92.8972Z" fill="white" stroke="#3D3D3D" stroke-width="4"/>
<path fill-rule="evenodd" clip-rule="evenodd" d="M481.838 84.8972C481.838 101.96 495.675 115.794 512.745 115.794C529.815 115.794 543.654 101.96 543.654 84.8972C543.654 67.8326 529.815 54 512.745 54C495.675 54 481.838 67.8326 481.838 84.8972Z" fill="white" stroke="#3D3D3D" stroke-width="4"/>
<path fill-rule="evenodd" clip-rule="evenodd" d="M234.837 254.897C234.837 271.96 248.675 285.794 265.744 285.794C282.815 285.794 296.654 271.96 296.654 254.897C296.654 237.833 282.815 224 265.744 224C248.675 224 234.837 237.833 234.837 254.897Z" fill="#FFF0AE"/>
<path fill-rule="evenodd" clip-rule="evenodd" d="M234.837 243.897C234.837 260.96 248.675 274.794 265.744 274.794C282.815 274.794 296.654 260.96 296.654 243.897C296.654 226.833 282.815 213 265.744 213C248.675 213 234.837 226.833 234.837 243.897Z" fill="white"/>
<path d="M234.837 243.897C234.837 260.96 248.675 274.794 265.744 274.794C282.815 274.794 296.654 260.96 296.654 243.897C296.654 226.833 282.815 213 265.744 213C248.675 213 234.837 226.833 234.837 243.897" stroke="#3D3D3D" stroke-width="4"/>
<path fill-rule="evenodd" clip-rule="evenodd" d="M481.838 75.8972C481.838 92.9605 495.675 106.794 512.745 106.794C529.815 106.794 543.654 92.9605 543.654 75.8972C543.654 58.8326 529.815 45 512.745 45C495.675 45 481.838 58.8326 481.838 75.8972Z" fill="white" stroke="#3D3D3D" stroke-width="4"/>
</svg>
