<svg width="80" height="80" viewBox="0 0 80 80" fill="none" xmlns="http://www.w3.org/2000/svg">
<path fill-rule="evenodd" clip-rule="evenodd" d="M40 80C62.0914 80 80 62.0914 80 40C80 17.9086 62.0914 0 40 0C17.9086 0 0 17.9086 0 40C0 62.0914 17.9086 80 40 80ZM37.6225 65.2102C39.3588 67.1421 42.2235 68.1081 46.2168 68.1081C48.9079 68.1081 51.2518 67.5812 53.5957 66.3518C55.9396 65.1223 57.6758 63.4538 58.8043 61.0828C59.9329 58.7996 60.5405 56.2529 60.5405 53.5306C60.5405 52.389 60.4537 50.9839 60.1065 49.491C59.7592 47.9981 59.1516 46.4174 58.1098 44.7489C57.0681 43.0804 55.5923 41.7632 53.6825 40.7972C51.7727 39.8312 50.0365 39.3043 48.5607 39.3043C47.6926 39.3921 46.8245 39.5677 45.9564 39.919L59.9329 25.6927L57.6758 23.4095L34.8446 23.4973V13.5741L32.6743 12.4324H26.7712V14.101L28.8547 16.1207V23.4973H20V26.7465H28.7679V44.222C28.7679 46.7687 29.5492 48.7885 30.9381 50.2814C32.3271 51.7742 34.9314 52.4768 38.6643 52.4768C40.1401 52.4768 41.6158 52.0377 42.8312 51.1595C44.0465 50.2814 45.0883 49.0519 45.7827 47.4712C45.8696 47.2078 45.9564 46.8565 45.9564 46.5931C45.9564 46.154 45.7827 45.8027 45.5223 45.4514C45.2619 45.188 45.0014 45.1002 44.741 45.1002C44.5674 45.1002 44.3938 45.188 44.307 45.2758C44.1333 45.3636 44.0465 45.5393 43.9597 45.7149C43.2652 46.6809 42.4839 47.4712 41.529 48.1738C40.6609 48.8763 39.706 49.2276 38.6643 49.2276C37.3621 49.2276 36.4072 48.7885 35.7995 47.8225C35.1919 46.8565 34.8446 45.6271 34.8446 44.222V26.7465H52.1199L39.706 43.6073V45.0124L42.4839 43.6073C44.0465 42.7291 45.2619 42.2901 46.3036 42.2901C47.7794 42.2901 49.2552 42.7291 50.5573 43.5195C51.8595 44.3977 52.8144 45.6271 53.5089 47.3834C54.2034 49.0519 54.5506 51.1595 54.5506 53.5306C54.5506 55.8138 54.2034 57.7458 53.5957 59.5021C52.988 61.2584 51.9463 62.5757 50.6441 63.4538C49.342 64.332 47.8662 64.7711 46.2168 64.7711C45.0014 64.7711 43.8729 64.5955 42.6576 64.2442C41.4422 63.9807 40.5741 63.4538 40.0532 62.6635C40.6609 62.4879 41.2686 62.0488 41.7026 61.4341C42.1367 60.8193 42.3971 60.029 42.3971 59.063C42.3971 58.2727 42.3103 57.5701 41.9631 57.0432C41.6158 56.5163 41.1818 56.0772 40.6609 55.726C40.1401 55.4625 39.4456 55.2869 38.6643 55.2869C37.883 55.2869 37.1885 55.3747 36.6676 55.726C36.1468 56.0772 35.7127 56.5163 35.3655 57.0432C35.105 57.5701 34.9314 58.2727 34.9314 59.063C34.9314 61.2584 35.7995 63.2782 37.6225 65.2102Z" fill="#2C7DF7"/>
</svg>
